<?xml version="1.0" encoding="UTF-8" standalone="no"?>
<!-- Svg Vector Icons : http://www.onlinewebfonts.com/icon -->

<svg
   xmlns:dc="http://purl.org/dc/elements/1.1/"
   xmlns:cc="http://creativecommons.org/ns#"
   xmlns:rdf="http://www.w3.org/1999/02/22-rdf-syntax-ns#"
   xmlns:svg="http://www.w3.org/2000/svg"
   xmlns="http://www.w3.org/2000/svg"
   xmlns:xlink="http://www.w3.org/1999/xlink"
   xmlns:sodipodi="http://sodipodi.sourceforge.net/DTD/sodipodi-0.dtd"
   xmlns:inkscape="http://www.inkscape.org/namespaces/inkscape"
   version="1.1"
   x="0px"
   y="0px"
   viewBox="0 0 358.46457 385.83072"
   enable-background="new 0 0 1000 1000"
   xml:space="preserve"
   id="svg10"
   sodipodi:docname="start.svg"
   inkscape:version="0.92.4 (5da689c313, 2019-01-14)"
   width="358.46457"
   height="385.83072"><metadata
   id="metadata12"><rdf:RDF><cc:Work
       rdf:about=""><dc:format>image/svg+xml</dc:format><dc:type
         rdf:resource="http://purl.org/dc/dcmitype/StillImage" /></cc:Work></rdf:RDF></metadata><defs
   id="defs14"><linearGradient
     inkscape:collect="always"
     id="linearGradient825"><stop
       style="stop-color:#003ecc;stop-opacity:1"
       offset="0"
       id="stop821" /><stop
       id="stop829"
       offset="0.46886811"
       style="stop-color:#a0a000;stop-opacity:1" /><stop
       style="stop-color:#960096;stop-opacity:1"
       offset="1"
       id="stop823" /></linearGradient><linearGradient
     inkscape:collect="always"
     xlink:href="#linearGradient825"
     id="linearGradient827"
     x1="2904.4282"
     y1="-2150.1636"
     x2="7854.2383"
     y2="2876.5894"
     gradientUnits="userSpaceOnUse" /></defs><sodipodi:namedview
   pagecolor="#ffffff"
   bordercolor="#666666"
   borderopacity="1"
   objecttolerance="10"
   gridtolerance="10"
   guidetolerance="10"
   inkscape:pageopacity="0"
   inkscape:pageshadow="2"
   inkscape:window-width="1920"
   inkscape:window-height="1015"
   id="namedview12"
   showgrid="false"
   inkscape:zoom="0.6675088"
   inkscape:cx="682.96766"
   inkscape:cy="236.22764"
   inkscape:window-x="0"
   inkscape:window-y="0"
   inkscape:window-maximized="1"
   inkscape:current-layer="svg10"
   inkscape:lockguides="false" />
  <g
   id="start-here-kde"
   transform="matrix(0.03937008,0,0,0.03937008,-17.618111,188.58662)">
    <path
   d="M 3625.8,4315.1 C 3414.2,3932 3218.2,3582.3 3191.5,3535.6 l -51.2,-80.2 h -859.7 c -474.4,0 -864.2,-4.5 -866.4,-8.9 -37.9,-49 -955.5,-1728.4 -955.5,-1743.9 0,-11.1 178.2,-343 396.5,-735 218.3,-392 409.8,-743.9 427.6,-781.8 l 33.4,-69 -434.4,-781.9 -434.3,-781.8 483.3,-875.3 481.1,-875.3 868.6,-6.7 868.6,-4.5 434.3,-790.7 434.3,-790.7 h 971.1 c 750.6,0 977.8,6.7 993.4,29 13.4,13.4 211.6,369.7 443.2,788.5 l 418.8,763.9 879.8,4.5 877.5,6.7 474.4,857.5 c 260.6,472.2 476.6,870.9 476.6,888.7 0,17.8 -189.3,374.2 -423.2,792.9 -231.6,418.7 -423.2,768.4 -423.2,775.1 0,6.7 191.5,358.6 423.2,779.5 231.7,423.2 423.2,781.8 423.2,795.1 0,15.6 -216,418.7 -481.1,893.1 l -481.1,866.4 H 7717.2 6844.1 L 6412,4230.3 5980,5010 H 4995.5 4011.1 Z M 6140.4,3940.9 6523.5,3248.2 6140.4,2560 5757.3,1869.5 h -739.5 c -563.5,0 -743.9,6.7 -761.7,29 -33.4,42.3 -761.7,1356.4 -761.7,1376.5 0,8.9 167,318.5 369.7,686 l 369.7,670.4 h 761.7 759.5 z m -2646,-1463.3 c 178.2,-320.7 345.2,-625.9 374.2,-679.3 l 51.2,-95.8 -374.2,-679.3 -374.2,-679.3 -768.4,-4.5 -768.4,-6.7 -300.7,550.1 c -164.8,302.9 -334.1,612.5 -376.4,686 l -75.7,138.2 351.9,632.5 c 191.5,347.5 365.3,654.8 380.9,683.8 l 33.4,49 761.7,-4.5 761.7,-6.7 z m 5256.3,-95.8 380.8,-690.5 -376.4,-686 -378.6,-683.8 h -764 -764 l -376.4,686 -376.4,683.8 383.1,690.5 380.9,690.5 h 755 752.8 z M 6084.7,923 C 6254,617.9 6423.2,310.5 6458.9,239.2 l 69,-124.7 -385.3,-692.7 -385.3,-692.7 h -750.6 -750.6 l -380.9,688.2 c -209.4,376.4 -380.9,694.9 -380.9,706 0,8.9 167,322.9 372,692.7 l 369.7,674.9 770.6,-4.5 770.6,-6.7 z m -2548,-1679.4 380.9,-686 -385.3,-694.9 -383.2,-692.7 -755,6.7 -755,4.5 -378.6,686 -376.5,683.7 383.1,690.5 380.9,690.4 h 755 752.8 z m 5214,-2.2 380.8,-690.5 -376.4,-686 -378.6,-683.8 -764,-6.7 -766.2,-4.5 -367.5,661.5 c -202.7,363 -372,674.9 -374.2,690.4 -4.5,17.8 164.8,343 374.2,721.6 l 380.9,688.2 h 755 752.8 z M 6122.6,-2311.1 c 202.7,-363 369.7,-677.1 374.2,-694.9 2.2,-20 -162.6,-340.8 -369.7,-714.9 l -374.2,-679.3 h -755 -757.3 l -289.6,523.4 c -160.4,287.3 -331.9,599.1 -383.1,690.4 l -91.3,167.1 378.6,686 378.6,683.8 h 761.7 759.5 z"
   id="path4"
   style="fill:url(#linearGradient827);fill-opacity:1"
   inkscape:connector-curvature="0" /></g></svg>